<svg width="31" height="43" viewBox="0 0 31 43" fill="none" xmlns="http://www.w3.org/2000/svg">
<path fill-rule="evenodd" clip-rule="evenodd" d="M15.5 0C6.93071 0 0 6.91269 0 15.4597C0 24.6692 9.78714 37.3683 13.8171 42.2049C14.7029 43.265 16.3193 43.265 17.205 42.2049C21.2129 37.3683 31 24.6692 31 15.4597C31 6.91269 24.0693 0 15.5 0Z" fill="#1D4E8D"/>
<ellipse cx="15.5" cy="15" rx="10.5" ry="10" fill="#FAFAFA"/>
<path d="M15.2125 9.96533C15.2976 9.67951 15.7024 9.67951 15.7875 9.96533L16.671 12.9315C16.7089 13.0587 16.8258 13.1459 16.9585 13.1459H19.8693C20.1536 13.1459 20.2785 13.5044 20.0557 13.681L17.6571 15.5821C17.561 15.6583 17.5209 15.7853 17.556 15.9028L18.4613 18.9426C18.545 19.2237 18.2173 19.4455 17.9875 19.2633L15.6863 17.4395C15.5772 17.353 15.4228 17.353 15.3137 17.4395L13.0125 19.2633C12.7827 19.4455 12.455 19.2237 12.5387 18.9426L13.444 15.9028C13.4791 15.7853 13.439 15.6583 13.3429 15.5821L10.9443 13.681C10.7215 13.5044 10.8464 13.1459 11.1307 13.1459H14.0415C14.1742 13.1459 14.2911 13.0587 14.329 12.9315L15.2125 9.96533Z" fill="#1D4E8D"/>
</svg>
